<svg width="22" height="22" viewBox="0 0 22 22" fill="none" xmlns="http://www.w3.org/2000/svg">
<path d="M19.9884 9.20463H19.25V9.16658H11V12.8333H16.1806C15.4248 14.9677 13.3939 16.4999 11 16.4999C7.96266 16.4999 5.50004 14.0373 5.50004 10.9999C5.50004 7.96254 7.96266 5.49992 11 5.49992C12.4021 5.49992 13.6776 6.02883 14.6488 6.89279L17.2416 4.3C15.6045 2.77421 13.4145 1.83325 11 1.83325C5.93775 1.83325 1.83337 5.93763 1.83337 10.9999C1.83337 16.0622 5.93775 20.1666 11 20.1666C16.0623 20.1666 20.1667 16.0622 20.1667 10.9999C20.1667 10.3853 20.1035 9.78533 19.9884 9.20463Z" fill="#FFC107"/>
<path d="M2.89032 6.73329L5.90203 8.942C6.71694 6.92442 8.69053 5.49992 11.0001 5.49992C12.4021 5.49992 13.6777 6.02884 14.6489 6.89279L17.2417 4.3C15.6045 2.77421 13.4146 1.83325 11.0001 1.83325C7.47915 1.83325 4.42574 3.82104 2.89032 6.73329Z" fill="#FF3D00"/>
<path d="M11 20.1667C13.3677 20.1667 15.5191 19.2606 17.1458 17.7871L14.3087 15.3863C13.3884 16.0834 12.2444 16.5001 11 16.5001C8.61573 16.5001 6.59127 14.9798 5.82861 12.8582L2.83936 15.1613C4.35644 18.1299 7.43736 20.1667 11 20.1667Z" fill="#4CAF50"/>
<path d="M19.9884 9.20479H19.25V9.16675H11V12.8334H16.1805C15.8175 13.8587 15.158 14.7428 14.3073 15.3868L14.3087 15.3859L17.1458 17.7866C16.945 17.969 20.1667 15.5834 20.1667 11.0001C20.1667 10.3855 20.1034 9.7855 19.9884 9.20479Z" fill="#1976D2"/>
</svg>
