<svg width="22" height="22" viewBox="0 0 22 22" fill="none" xmlns="http://www.w3.org/2000/svg">
<path d="M17.5068 9.75171C13.9611 7.64595 8.11242 7.45237 4.72754 8.47969C4.18384 8.6446 3.6091 8.33783 3.44448 7.79422C3.27977 7.25032 3.58625 6.67588 4.13015 6.51067C8.01588 5.33124 14.475 5.55901 18.557 7.98209C19.046 8.27241 19.2062 8.9038 18.9165 9.39184C18.6265 9.88077 17.9946 10.042 17.5068 9.75171ZM17.3907 12.8705C17.1419 13.2742 16.6141 13.4008 16.211 13.1529C13.255 11.3359 8.74726 10.8095 5.24997 11.8711C4.7965 12.008 4.31742 11.7525 4.1797 11.2997C4.11404 11.082 4.13738 10.8472 4.24458 10.6467C4.35178 10.4463 4.53411 10.2965 4.75158 10.2302C8.74666 9.01778 13.7133 9.60493 17.1085 11.6915C17.5117 11.9397 17.6385 12.4678 17.3907 12.8705ZM16.0447 15.8658C15.9978 15.9427 15.9363 16.0097 15.8635 16.0628C15.7907 16.1159 15.7082 16.1542 15.6206 16.1754C15.5331 16.1966 15.4422 16.2003 15.3532 16.1863C15.2642 16.1723 15.1788 16.1409 15.102 16.0939C12.5189 14.5152 9.26761 14.1587 5.43863 15.0333C5.35089 15.0534 5.26006 15.056 5.17133 15.0409C5.0826 15.0259 4.9977 14.9935 4.92148 14.9456C4.84527 14.8977 4.77923 14.8353 4.72714 14.7619C4.67505 14.6886 4.63793 14.6056 4.6179 14.5179C4.59772 14.4301 4.59506 14.3392 4.61007 14.2504C4.62507 14.1616 4.65744 14.0767 4.70533 14.0004C4.75322 13.9241 4.81568 13.8581 4.88914 13.806C4.9626 13.7539 5.04561 13.7168 5.13343 13.6969C9.32357 12.7391 12.9178 13.1513 15.8172 14.923C15.8941 14.9699 15.9609 15.0316 16.0139 15.1043C16.067 15.1771 16.1052 15.2597 16.1263 15.3472C16.1474 15.4348 16.1511 15.5256 16.1371 15.6146C16.1231 15.7036 16.0916 15.7889 16.0447 15.8658ZM10.9998 0C4.92497 0 0 4.92477 0 10.9998C0 17.0754 4.92497 22 10.9999 22C17.0751 22 22 17.0754 22 10.9998C22 4.92487 17.0751 0 10.9998 0Z" fill="#10B981"/>
</svg>
